<?xml version="1.0" encoding="UTF-8" standalone="no"?>
<!-- Created with Inkscape (http://www.inkscape.org/) -->

<svg
   width="198.30533mm"
   height="102.96795mm"
   viewBox="0 0 198.30533 102.96795"
   version="1.1"
   id="svg17147"
   xmlns:xlink="http://www.w3.org/1999/xlink"
   xmlns="http://www.w3.org/2000/svg"
   xmlns:svg="http://www.w3.org/2000/svg">
  <defs
     id="defs17144">
    <radialGradient
       xlink:href="#linearGradient12560"
       id="radialGradient12786"
       gradientUnits="userSpaceOnUse"
       gradientTransform="matrix(0.60870821,0.00333305,-0.00430588,0.78637403,3.3432591,20.7825)"
       cx="10.482728"
       cy="84.371674"
       fx="10.482728"
       fy="84.371674"
       r="99.152664" />
    <linearGradient
       id="linearGradient12560">
      <stop
         style="stop-color:#e4e5e6;stop-opacity:1"
         offset="0"
         id="stop12556" />
      <stop
         style="stop-color:#7b8085;stop-opacity:1"
         offset="1"
         id="stop12558" />
    </linearGradient>
    <radialGradient
       xlink:href="#linearGradient12560"
       id="radialGradient16984"
       gradientUnits="userSpaceOnUse"
       gradientTransform="matrix(0.60870821,0.00333305,-0.00430588,0.78637403,3.3432591,20.7825)"
       cx="10.482728"
       cy="84.371674"
       fx="10.482728"
       fy="84.371674"
       r="99.152664" />
    <radialGradient
       xlink:href="#linearGradient12560"
       id="radialGradient16992"
       gradientUnits="userSpaceOnUse"
       gradientTransform="matrix(0.60870821,0.00333305,-0.00430588,0.78637403,3.3432591,20.7825)"
       cx="10.482728"
       cy="84.371674"
       fx="10.482728"
       fy="84.371674"
       r="99.152664" />
    <radialGradient
       xlink:href="#linearGradient12560"
       id="radialGradient17000"
       gradientUnits="userSpaceOnUse"
       gradientTransform="matrix(0.60870821,0.00333305,-0.00430588,0.78637403,3.3432591,20.7825)"
       cx="10.482728"
       cy="84.371674"
       fx="10.482728"
       fy="84.371674"
       r="99.152664" />
    <radialGradient
       xlink:href="#linearGradient12560"
       id="radialGradient17008"
       gradientUnits="userSpaceOnUse"
       gradientTransform="matrix(0.60870821,0.00333305,-0.00430588,0.78637403,3.3432591,20.7825)"
       cx="10.482728"
       cy="84.371674"
       fx="10.482728"
       fy="84.371674"
       r="99.152664" />
    <radialGradient
       xlink:href="#linearGradient12560"
       id="radialGradient17016"
       gradientUnits="userSpaceOnUse"
       gradientTransform="matrix(0.60870821,0.00333305,-0.00430588,0.78637403,3.3432591,20.7825)"
       cx="10.482728"
       cy="84.371674"
       fx="10.482728"
       fy="84.371674"
       r="99.152664" />
    <radialGradient
       xlink:href="#linearGradient12560"
       id="radialGradient17024"
       gradientUnits="userSpaceOnUse"
       gradientTransform="matrix(0.60870821,0.00333305,-0.00430588,0.78637403,3.3432591,20.7825)"
       cx="10.482728"
       cy="84.371674"
       fx="10.482728"
       fy="84.371674"
       r="99.152664" />
    <radialGradient
       xlink:href="#linearGradient12560"
       id="radialGradient17032"
       gradientUnits="userSpaceOnUse"
       gradientTransform="matrix(0.60870821,0.00333305,-0.00430588,0.78637403,3.3432591,20.7825)"
       cx="10.482728"
       cy="84.371674"
       fx="10.482728"
       fy="84.371674"
       r="99.152664" />
    <radialGradient
       xlink:href="#linearGradient12560"
       id="radialGradient17050"
       gradientUnits="userSpaceOnUse"
       gradientTransform="matrix(0.60870821,0.00333305,-0.00430588,0.78637403,3.3432591,20.7825)"
       cx="10.482728"
       cy="84.371674"
       fx="10.482728"
       fy="84.371674"
       r="99.152664" />
    <radialGradient
       xlink:href="#linearGradient12560"
       id="radialGradient17052"
       gradientUnits="userSpaceOnUse"
       gradientTransform="matrix(0.60870821,0.00333305,-0.00430588,0.78637403,3.3432591,20.7825)"
       cx="10.482728"
       cy="84.371674"
       fx="10.482728"
       fy="84.371674"
       r="99.152664" />
    <radialGradient
       xlink:href="#linearGradient12560"
       id="radialGradient17054"
       gradientUnits="userSpaceOnUse"
       gradientTransform="matrix(0.60870821,0.00333305,-0.00430588,0.78637403,3.3432591,20.7825)"
       cx="10.482728"
       cy="84.371674"
       fx="10.482728"
       fy="84.371674"
       r="99.152664" />
    <radialGradient
       xlink:href="#linearGradient12560"
       id="radialGradient17056"
       gradientUnits="userSpaceOnUse"
       gradientTransform="matrix(0.60870821,0.00333305,-0.00430588,0.78637403,3.3432591,20.7825)"
       cx="10.482728"
       cy="84.371674"
       fx="10.482728"
       fy="84.371674"
       r="99.152664" />
    <radialGradient
       xlink:href="#linearGradient12560"
       id="radialGradient17058"
       gradientUnits="userSpaceOnUse"
       gradientTransform="matrix(0.60870821,0.00333305,-0.00430588,0.78637403,3.3432591,20.7825)"
       cx="10.482728"
       cy="84.371674"
       fx="10.482728"
       fy="84.371674"
       r="99.152664" />
    <radialGradient
       xlink:href="#linearGradient12560"
       id="radialGradient17060"
       gradientUnits="userSpaceOnUse"
       gradientTransform="matrix(0.60870821,0.00333305,-0.00430588,0.78637403,3.3432591,20.7825)"
       cx="10.482728"
       cy="84.371674"
       fx="10.482728"
       fy="84.371674"
       r="99.152664" />
    <radialGradient
       xlink:href="#linearGradient12560"
       id="radialGradient17062"
       gradientUnits="userSpaceOnUse"
       gradientTransform="matrix(0.60870821,0.00333305,-0.00430588,0.78637403,3.3432591,20.7825)"
       cx="10.482728"
       cy="84.371674"
       fx="10.482728"
       fy="84.371674"
       r="99.152664" />
  </defs>
  <g
     id="layer1"
     transform="translate(25.434288,-26.841803)">
    <g
       id="g12554"
       style="fill:url(#radialGradient12786);fill-opacity:1"
       transform="translate(13.226822,-13.348802)">
      <path
         style="fill:url(#radialGradient17050);fill-opacity:1;stroke-width:0.264583"
         d="m 72.718487,142.72911 c -4.857695,-1.33405 -8.797171,-5.19188 -10.14149,-9.93132 -0.225777,-0.79598 -0.445031,-2.04255 -0.487298,-2.77016 v -1.32292 h 10.903479 v 0.69182 c 0,0.80707 0.918506,1.95973 1.952887,2.45058 0.783915,0.37199 2.203283,0.42949 10.601682,0.42949 10.21542,0 10.505152,-0.0308 11.556627,-1.22968 0.236424,-0.26956 0.584885,-0.92941 0.774361,-1.46634 0.302096,-0.85606 0.284004,-1.11039 -0.146976,-2.06613 -0.270311,-0.59944 -0.857181,-1.35077 -1.304152,-1.6696 -0.793604,-0.56611 -1.054777,-0.58316 -11.131423,-0.72676 -11.385373,-0.16225 -11.272494,-0.14659 -14.441001,-2.00321 -1.876433,-1.09951 -4.660945,-4.05018 -5.59281,-5.92654 -1.401532,-2.82206 -1.529731,-3.89044 -1.529731,-12.74858 v -8.146494 h 5.423959 5.423958 l 0.0011,7.606774 c 0.0011,7.12367 0.03438,7.66153 0.526749,8.46908 0.289168,0.47428 0.913799,1.09891 1.388073,1.38808 0.817139,0.49821 1.349031,0.52581 10.152763,0.52674 5.109747,5.3e-4 9.931779,0.11932 10.715625,0.26393 4.711301,0.8692 9.282981,4.97268 10.879951,9.76569 2.59071,7.7755 -2.09321,16.20397 -10.248525,18.44168 -1.804273,0.49508 -23.461366,0.4727 -25.277697,-0.0261 z m 5.830821,-41.0095 v -5.426358 l 10.896674,-2.6e-5 c 10.409238,-2.4e-5 10.946298,0.02402 12.006068,0.537052 1.41262,0.683834 2.79693,2.026367 3.43865,3.334872 0.39855,0.81266 0.50302,1.62098 0.50785,3.93329 v 2.91044 l -13.421728,0.0686 -13.427604,0.0686 z"
         id="path856" />
      <path
         style="fill:url(#radialGradient17052);fill-opacity:1;stroke-width:0.264583"
         d="m 97.02819,86.558481 c -4.78268,-1.37431 -8.69763,-5.36152 -10.04691,-10.23236 -0.24348,-0.87897 -0.35718,-2.64584 -0.35718,-2.64584 v -1.0477 h 10.50671 c 0.18107,1.2735 0.80434,2.38642 2.11484,3.10753 1.25204,0.44666 2.89801,0.62829 10.43743,0.40412 9.30358,0.0664 10.16868,0.0346 10.98023,-0.40412 0.88994,-0.48103 1.4176,-1.18234 1.89013,-2.51222 l 0.21154,-0.5953 h 10.71896 l -0.27055,2.52849 c -0.8284,5.35194 -5.18528,10.07761 -10.57997,11.47551 -2.48003,0.64264 -23.3182,0.57909 -25.60523,-0.0781 z m 0.39688,-17.91397 c -4.7725,-1.26108 -9.14236,-5.44422 -10.3446,-9.90258 -0.54291,-2.01332 -0.59272,-5.79528 -0.10142,-7.70045 1.29293,-5.01367 5.36475,-9.074602 10.45801,-10.430033 2.10749,-0.560848 23.00393,-0.560848 25.11142,0 5.46898,1.455417 9.5105,6.038743 10.63238,11.412953 0.43624,2.08976 0.40178,2.61651 0.40178,2.61651 h -10.87045 l -0.25363,-0.88509 c -0.37628,-1.31316 -1.55773,-2.36164 -2.87951,-2.55554 -0.61579,-0.0903 -5.38538,-0.12706 -10.5991,-0.0816 l -4.39309,0.0383 c -2.52887,0.002 -5.02329,-0.16808 -5.98352,1.02358 -1.02645,1.12043 -1.30904,1.9657 -1.06637,3.18966 0.2089,1.05363 0.84733,1.84713 1.94132,2.41285 0.7211,0.3729 2.07475,0.42968 10.24224,0.42968 h 9.41132 l -0.0716,5.35782 -0.0716,5.35781 -10.05416,0.0503 c -8.07365,0.0404 -10.34082,-0.0254 -11.50938,-0.3342 z"
         id="path856-5" />
      <path
         style="fill:url(#radialGradient17054);fill-opacity:1;stroke-width:0.264583"
         d="m 19.414935,142.63061 c -4.78268,-1.37431 -8.69763,-5.36152 -10.04691,-10.23236 -0.24348,-0.87897 -0.35718,-2.64584 -0.35718,-2.64584 v -1.0477 h 10.50671 c 0.18107,1.2735 0.80434,2.38642 2.11484,3.10753 1.25204,0.44666 2.89801,0.62829 10.43743,0.40412 9.30358,0.0664 10.16868,0.0346 10.98023,-0.40412 0.88994,-0.48103 1.4176,-1.18234 1.89013,-2.51222 l 0.21154,-0.5953 h 10.71896 l -0.27055,2.52849 c -0.8284,5.35194 -5.18528,10.07761 -10.57997,11.47551 -2.48003,0.64264 -23.3182,0.57909 -25.60523,-0.0781 z m 0.39688,-17.91397 c -4.7725,-1.26108 -9.14236,-5.44422 -10.3446,-9.90258 -0.54291,-2.01332 -0.59272,-5.79528 -0.10142,-7.70045 1.29293,-5.01367 5.36475,-9.0746 10.45801,-10.43004 2.10749,-0.56084 23.00393,-0.56084 25.11142,0 5.46898,1.45542 9.5105,6.03875 10.63238,11.41296 0.43624,2.08976 0.40178,2.61651 0.40178,2.61651 h -10.87045 l -0.25363,-0.88509 c -0.37628,-1.31316 -1.55773,-2.36164 -2.87951,-2.55554 -0.61579,-0.0903 -5.38538,-0.12706 -10.5991,-0.0816 l -4.39309,0.0383 c -2.52887,0.002 -5.02329,-0.16808 -5.98352,1.02358 -1.02645,1.12043 -1.30904,1.9657 -1.06637,3.18966 0.2089,1.05363 0.84733,1.84713 1.94132,2.41285 0.7211,0.3729 2.07475,0.42968 10.24224,0.42968 h 9.41132 l -0.0716,5.35782 -0.0716,5.35781 -10.05416,0.0503 c -8.07365,0.0404 -10.34082,-0.0254 -11.50938,-0.3342 z"
         id="path856-5-2" />
      <path
         style="fill:url(#radialGradient17056);fill-opacity:1;stroke-width:0.264583"
         d="M 33.63138,87.165127 V 72.877635 l 10.786798,-0.14328 v 14.430772 z m 36.0848,-0.280725 C 69.62669,86.651203 69.553475,82.608179 69.553475,77.899911 V 69.339386 L 57.448787,69.237759 C 44.315505,69.127494 44.717093,69.169669 41.333051,67.545389 39.18687,66.515257 36.311891,63.598626 35.215948,61.339653 33.751251,58.320603 33.551441,56.639377 33.63138,48.006766 v -7.805181 l 10.786798,-0.01098 0.0015,7.215373 c 8.37e-4,4.082111 0.118521,7.63678 0.271011,8.185796 0.788805,2.349452 2.81406,2.900163 8.642263,2.567623 l 4.87024,-0.02951 11.378978,-0.06895 V 40.201585 h 10.822094 l -0.06758,23.481755 -0.06757,23.481772 -5.195107,0.07164 c -4.563846,0.06293 -5.214877,0.02011 -5.357813,-0.35237 z"
         id="path856-9" />
      <path
         style="fill:url(#radialGradient17058);fill-opacity:1;stroke-width:0.264583"
         d="M -1.7516129,87.165127 V 55.98462 c -0.06796,-2.48672 -1.7577957,-4.550382 -4.3773921,-4.582067 l -5.350807,-0.08849 -7.999005,-0.132292 v -5.423958 -5.423959 h 8.466667 c 8.2066479,0 8.5221317,0.01915 10.2726786,0.623565 4.0210898,1.388367 7.5114954,4.639639 9.0239714,8.405715 0.457851,1.14005 0.747264,2.173576 0.923914,4.160823 0.255076,2.869504 0.2,7.727532 0.152473,17.766148 V 87.165132 Z M 12.258603,51.181793 V 40.201585 h 15.09395 v 10.980208 z"
         id="path856-3" />
      <path
         style="fill:url(#radialGradient17060);fill-opacity:1;stroke-width:0.264583"
         d="m 130.54006,142.99221 v -31.1805 c -0.068,-2.48672 -1.7578,-4.55039 -4.3774,-4.58207 l -5.3508,-0.0885 -7.99901,-0.13229 v -5.42396 -5.42396 h 8.46667 c 8.20665,0 8.52213,0.01915 10.27268,0.623565 4.02109,1.388367 7.51149,4.639635 9.02397,8.405715 0.45785,1.14005 0.74726,2.17358 0.92391,4.16082 0.25508,2.86951 0.2,7.72754 0.15248,17.76615 v 15.87503 z m 14.01021,-35.98333 V 96.028671 h 15.09395 v 10.980209 z"
         id="path856-3-1" />
      <path
         style="fill:url(#radialGradient17062);fill-opacity:1;stroke-width:0.264583"
         d="m -38.661109,137.70724 v -5.41725 l 14.136018,-0.0729 c 16.5092678,-0.0851 15.0243408,0.19428 16.5607738,-3.11557 0.04469,-0.0963 0.130421,-0.39681 0.130421,-0.39681 h 10.569541 c 0.06266,0.61654 0.03467,0.9326 -0.02572,1.52315 -0.345364,3.37749 -2.00847,6.63644 -4.619259,9.07008 -3.312319,3.07032 -6.809022,3.839 -10.9539058,3.8265 h -11.093999 -14.70387 z m 4.789079,-23.42235 11.429852,-5.3e-4 c 12.8946298,-6e-4 12.7325598,0.0227 13.8785288,-1.98396 0.70154,-1.22845 0.61587,-2.42673 -0.261599,-3.65902 -1.068555,-1.50053 -1.065409,-1.50024 -16.0690298,-1.50024 H -38.66111 v -5.42395 -5.42396 l 14.61823,0.003 c 11.334853,0.002 14.9153658,0.0824 15.9411448,0.35587 4.652611,1.24054 8.672854,5.03524 10.218021,9.64476 0.683392,2.0387 0.806744,5.96599 0.250886,7.98789 -1.000763,3.64021 -4.083534,7.5179 -7.293907,9.1747 -3.106332,1.6031 -3.818829,1.67321 -17.0031248,1.67321 h -11.94217 z"
         id="path856-1" />
    </g>
  </g>
</svg>
